<mxfile host="app.diagrams.net" modified="2024-02-19T08:58:34.138Z" agent="Mozilla/5.0 (Windows NT 10.0; Win64; x64) AppleWebKit/537.36 (KHTML, like Gecko) Chrome/120.0.0.0 YaBrowser/24.1.0.0 Safari/537.36" etag="rdhNS8cS6NTVZFKKa6C9" version="23.1.5" type="device">
  <diagram name="Страница — 1" id="Fc-8wu1gKc0LjogbhqDQ">
    <mxGraphModel dx="1434" dy="783" grid="1" gridSize="10" guides="1" tooltips="1" connect="1" arrows="1" fold="1" page="1" pageScale="1" pageWidth="827" pageHeight="1169" math="0" shadow="0">
      <root>
        <mxCell id="0" />
        <mxCell id="1" parent="0" />
        <mxCell id="dG5ufhb857vQ9_UO_5NX-22" value="" style="edgeStyle=orthogonalEdgeStyle;rounded=0;orthogonalLoop=1;jettySize=auto;html=1;" edge="1" parent="1" source="dG5ufhb857vQ9_UO_5NX-1" target="dG5ufhb857vQ9_UO_5NX-2">
          <mxGeometry relative="1" as="geometry" />
        </mxCell>
        <mxCell id="dG5ufhb857vQ9_UO_5NX-1" value="Start" style="ellipse;whiteSpace=wrap;html=1;" vertex="1" parent="1">
          <mxGeometry x="136.47" y="20" width="106" height="50" as="geometry" />
        </mxCell>
        <mxCell id="dG5ufhb857vQ9_UO_5NX-23" value="" style="edgeStyle=orthogonalEdgeStyle;rounded=0;orthogonalLoop=1;jettySize=auto;html=1;" edge="1" parent="1" source="dG5ufhb857vQ9_UO_5NX-2" target="dG5ufhb857vQ9_UO_5NX-3">
          <mxGeometry relative="1" as="geometry" />
        </mxCell>
        <mxCell id="dG5ufhb857vQ9_UO_5NX-2" value="input array" style="shape=parallelogram;perimeter=parallelogramPerimeter;whiteSpace=wrap;html=1;fixedSize=1;" vertex="1" parent="1">
          <mxGeometry x="129.47" y="110" width="120" height="60" as="geometry" />
        </mxCell>
        <mxCell id="dG5ufhb857vQ9_UO_5NX-24" value="" style="edgeStyle=orthogonalEdgeStyle;rounded=0;orthogonalLoop=1;jettySize=auto;html=1;" edge="1" parent="1" source="dG5ufhb857vQ9_UO_5NX-3" target="dG5ufhb857vQ9_UO_5NX-5">
          <mxGeometry relative="1" as="geometry" />
        </mxCell>
        <mxCell id="dG5ufhb857vQ9_UO_5NX-3" value="int num = 0" style="rounded=1;whiteSpace=wrap;html=1;" vertex="1" parent="1">
          <mxGeometry x="129.47" y="210" width="120" height="40" as="geometry" />
        </mxCell>
        <mxCell id="dG5ufhb857vQ9_UO_5NX-14" style="edgeStyle=orthogonalEdgeStyle;rounded=0;orthogonalLoop=1;jettySize=auto;html=1;exitX=0.5;exitY=1;exitDx=0;exitDy=0;entryX=0.5;entryY=0;entryDx=0;entryDy=0;" edge="1" parent="1" source="dG5ufhb857vQ9_UO_5NX-5" target="dG5ufhb857vQ9_UO_5NX-6">
          <mxGeometry relative="1" as="geometry" />
        </mxCell>
        <mxCell id="dG5ufhb857vQ9_UO_5NX-16" value="" style="edgeStyle=orthogonalEdgeStyle;rounded=0;orthogonalLoop=1;jettySize=auto;html=1;" edge="1" parent="1" source="dG5ufhb857vQ9_UO_5NX-5" target="dG5ufhb857vQ9_UO_5NX-11">
          <mxGeometry relative="1" as="geometry" />
        </mxCell>
        <mxCell id="dG5ufhb857vQ9_UO_5NX-5" value="for (int i=0; i&amp;lt;array.Length; i++)" style="rhombus;whiteSpace=wrap;html=1;" vertex="1" parent="1">
          <mxGeometry x="69.97" y="300" width="239" height="100" as="geometry" />
        </mxCell>
        <mxCell id="dG5ufhb857vQ9_UO_5NX-15" style="edgeStyle=orthogonalEdgeStyle;rounded=0;orthogonalLoop=1;jettySize=auto;html=1;exitX=0.5;exitY=1;exitDx=0;exitDy=0;entryX=0.5;entryY=0;entryDx=0;entryDy=0;" edge="1" parent="1" source="dG5ufhb857vQ9_UO_5NX-6" target="dG5ufhb857vQ9_UO_5NX-9">
          <mxGeometry relative="1" as="geometry" />
        </mxCell>
        <mxCell id="dG5ufhb857vQ9_UO_5NX-20" style="edgeStyle=orthogonalEdgeStyle;rounded=0;orthogonalLoop=1;jettySize=auto;html=1;exitX=0;exitY=0.5;exitDx=0;exitDy=0;" edge="1" parent="1" source="dG5ufhb857vQ9_UO_5NX-6">
          <mxGeometry relative="1" as="geometry">
            <mxPoint x="52.47" y="495.3333333333335" as="targetPoint" />
          </mxGeometry>
        </mxCell>
        <mxCell id="dG5ufhb857vQ9_UO_5NX-6" value="if (array[i].Length &amp;lt;=3)" style="rhombus;whiteSpace=wrap;html=1;" vertex="1" parent="1">
          <mxGeometry x="97.97" y="440" width="183" height="110" as="geometry" />
        </mxCell>
        <mxCell id="dG5ufhb857vQ9_UO_5NX-7" value="YES" style="text;html=1;align=center;verticalAlign=middle;whiteSpace=wrap;rounded=0;" vertex="1" parent="1">
          <mxGeometry x="202.46999999999997" y="410" width="60" height="30" as="geometry" />
        </mxCell>
        <mxCell id="dG5ufhb857vQ9_UO_5NX-8" value="YES" style="text;html=1;align=center;verticalAlign=middle;whiteSpace=wrap;rounded=0;" vertex="1" parent="1">
          <mxGeometry x="202.46999999999997" y="560" width="60" height="30" as="geometry" />
        </mxCell>
        <mxCell id="dG5ufhb857vQ9_UO_5NX-17" style="edgeStyle=orthogonalEdgeStyle;rounded=0;orthogonalLoop=1;jettySize=auto;html=1;exitX=0;exitY=0.5;exitDx=0;exitDy=0;entryX=0;entryY=0.5;entryDx=0;entryDy=0;" edge="1" parent="1" source="dG5ufhb857vQ9_UO_5NX-9" target="dG5ufhb857vQ9_UO_5NX-5">
          <mxGeometry relative="1" as="geometry" />
        </mxCell>
        <mxCell id="dG5ufhb857vQ9_UO_5NX-9" value="num = num +1" style="rounded=1;whiteSpace=wrap;html=1;" vertex="1" parent="1">
          <mxGeometry x="129.47" y="610" width="120" height="60" as="geometry" />
        </mxCell>
        <mxCell id="dG5ufhb857vQ9_UO_5NX-10" value="NO" style="text;html=1;align=center;verticalAlign=middle;whiteSpace=wrap;rounded=0;" vertex="1" parent="1">
          <mxGeometry x="317.96999999999997" y="320" width="60" height="30" as="geometry" />
        </mxCell>
        <mxCell id="dG5ufhb857vQ9_UO_5NX-31" value="" style="edgeStyle=orthogonalEdgeStyle;rounded=0;orthogonalLoop=1;jettySize=auto;html=1;" edge="1" parent="1" source="dG5ufhb857vQ9_UO_5NX-11" target="dG5ufhb857vQ9_UO_5NX-12">
          <mxGeometry relative="1" as="geometry" />
        </mxCell>
        <mxCell id="dG5ufhb857vQ9_UO_5NX-11" value="string[] result = new string[num]&lt;br&gt;int count = 0" style="rounded=1;whiteSpace=wrap;html=1;" vertex="1" parent="1">
          <mxGeometry x="402.46999999999997" y="325" width="190" height="50" as="geometry" />
        </mxCell>
        <mxCell id="dG5ufhb857vQ9_UO_5NX-26" value="" style="edgeStyle=orthogonalEdgeStyle;rounded=0;orthogonalLoop=1;jettySize=auto;html=1;" edge="1" parent="1" source="dG5ufhb857vQ9_UO_5NX-12" target="dG5ufhb857vQ9_UO_5NX-13">
          <mxGeometry relative="1" as="geometry" />
        </mxCell>
        <mxCell id="dG5ufhb857vQ9_UO_5NX-40" style="edgeStyle=orthogonalEdgeStyle;rounded=0;orthogonalLoop=1;jettySize=auto;html=1;exitX=1;exitY=0.5;exitDx=0;exitDy=0;" edge="1" parent="1" source="dG5ufhb857vQ9_UO_5NX-12" target="dG5ufhb857vQ9_UO_5NX-35">
          <mxGeometry relative="1" as="geometry" />
        </mxCell>
        <mxCell id="dG5ufhb857vQ9_UO_5NX-12" value="for (int i=0; i&amp;lt;array.Length; i++)" style="rhombus;whiteSpace=wrap;html=1;" vertex="1" parent="1">
          <mxGeometry x="377.96999999999997" y="440" width="239" height="100" as="geometry" />
        </mxCell>
        <mxCell id="dG5ufhb857vQ9_UO_5NX-27" value="" style="edgeStyle=orthogonalEdgeStyle;rounded=0;orthogonalLoop=1;jettySize=auto;html=1;" edge="1" parent="1" source="dG5ufhb857vQ9_UO_5NX-13" target="dG5ufhb857vQ9_UO_5NX-25">
          <mxGeometry relative="1" as="geometry" />
        </mxCell>
        <mxCell id="dG5ufhb857vQ9_UO_5NX-30" style="edgeStyle=orthogonalEdgeStyle;rounded=0;orthogonalLoop=1;jettySize=auto;html=1;exitX=0;exitY=0.5;exitDx=0;exitDy=0;" edge="1" parent="1" source="dG5ufhb857vQ9_UO_5NX-13">
          <mxGeometry relative="1" as="geometry">
            <mxPoint x="362.46999999999997" y="645.3333333333335" as="targetPoint" />
          </mxGeometry>
        </mxCell>
        <mxCell id="dG5ufhb857vQ9_UO_5NX-13" value="if (array[i].Length &amp;lt;=3)" style="rhombus;whiteSpace=wrap;html=1;" vertex="1" parent="1">
          <mxGeometry x="405.96999999999997" y="590" width="183" height="110" as="geometry" />
        </mxCell>
        <mxCell id="dG5ufhb857vQ9_UO_5NX-21" value="NO" style="text;html=1;align=center;verticalAlign=middle;whiteSpace=wrap;rounded=0;" vertex="1" parent="1">
          <mxGeometry x="52.47" y="460" width="60" height="30" as="geometry" />
        </mxCell>
        <mxCell id="dG5ufhb857vQ9_UO_5NX-29" style="edgeStyle=orthogonalEdgeStyle;rounded=0;orthogonalLoop=1;jettySize=auto;html=1;exitX=0;exitY=0.5;exitDx=0;exitDy=0;entryX=0;entryY=0.5;entryDx=0;entryDy=0;" edge="1" parent="1" source="dG5ufhb857vQ9_UO_5NX-25" target="dG5ufhb857vQ9_UO_5NX-12">
          <mxGeometry relative="1" as="geometry" />
        </mxCell>
        <mxCell id="dG5ufhb857vQ9_UO_5NX-25" value="result[count] = array[i]&lt;br&gt;count = count +1" style="rounded=1;whiteSpace=wrap;html=1;" vertex="1" parent="1">
          <mxGeometry x="419.96999999999997" y="740" width="155" height="60" as="geometry" />
        </mxCell>
        <mxCell id="dG5ufhb857vQ9_UO_5NX-32" value="YES" style="text;html=1;align=center;verticalAlign=middle;whiteSpace=wrap;rounded=0;" vertex="1" parent="1">
          <mxGeometry x="492.46999999999997" y="550" width="60" height="30" as="geometry" />
        </mxCell>
        <mxCell id="dG5ufhb857vQ9_UO_5NX-33" value="YES" style="text;html=1;align=center;verticalAlign=middle;whiteSpace=wrap;rounded=0;" vertex="1" parent="1">
          <mxGeometry x="492.46999999999997" y="700" width="60" height="30" as="geometry" />
        </mxCell>
        <mxCell id="dG5ufhb857vQ9_UO_5NX-34" value="NO" style="text;html=1;align=center;verticalAlign=middle;whiteSpace=wrap;rounded=0;" vertex="1" parent="1">
          <mxGeometry x="359.96999999999997" y="610" width="60" height="30" as="geometry" />
        </mxCell>
        <mxCell id="dG5ufhb857vQ9_UO_5NX-38" value="" style="edgeStyle=orthogonalEdgeStyle;rounded=0;orthogonalLoop=1;jettySize=auto;html=1;" edge="1" parent="1" source="dG5ufhb857vQ9_UO_5NX-35" target="dG5ufhb857vQ9_UO_5NX-37">
          <mxGeometry relative="1" as="geometry" />
        </mxCell>
        <mxCell id="dG5ufhb857vQ9_UO_5NX-35" value="print(result)" style="shape=document;whiteSpace=wrap;html=1;boundedLbl=1;" vertex="1" parent="1">
          <mxGeometry x="689.94" y="570" width="120" height="80" as="geometry" />
        </mxCell>
        <mxCell id="dG5ufhb857vQ9_UO_5NX-37" value="end" style="ellipse;whiteSpace=wrap;html=1;" vertex="1" parent="1">
          <mxGeometry x="689.94" y="730" width="120" height="80" as="geometry" />
        </mxCell>
        <mxCell id="dG5ufhb857vQ9_UO_5NX-41" value="NO" style="text;html=1;align=center;verticalAlign=middle;whiteSpace=wrap;rounded=0;" vertex="1" parent="1">
          <mxGeometry x="640" y="460" width="60" height="30" as="geometry" />
        </mxCell>
      </root>
    </mxGraphModel>
  </diagram>
</mxfile>
